<svg width="8" height="10" viewBox="0 0 8 10" fill="none" xmlns="http://www.w3.org/2000/svg">
<mask id="path-1-inside-1" fill="white">
<path d="M0.163817 6.29423C-0.709505 2.82847 2.03707 -0.442594 5.35954 0.0492643C5.57136 0.0806015 5.64184 0.356233 5.49217 0.503518C4.35807 1.61953 3.91455 3.35275 4.31001 4.92234C4.74904 6.66441 6.12906 7.94965 7.78767 8.19517C8.00039 8.22664 8.06997 8.50323 7.91927 8.65038C5.25048 11.2579 1.06738 9.87947 0.163817 6.29423ZM3.83228 5.05804C3.439 3.49786 3.77205 1.80619 4.79095 0.527497C2.0008 0.470545 -0.0860696 3.27032 0.641677 6.15852C1.41082 9.21049 4.82375 10.4592 7.19819 8.60568C5.5688 8.15893 4.27247 6.80516 3.83228 5.05804Z"/>
</mask>
<path d="M0.163817 6.29423C-0.709505 2.82847 2.03707 -0.442594 5.35954 0.0492643C5.57136 0.0806015 5.64184 0.356233 5.49217 0.503518C4.35807 1.61953 3.91455 3.35275 4.31001 4.92234C4.74904 6.66441 6.12906 7.94965 7.78767 8.19517C8.00039 8.22664 8.06997 8.50323 7.91927 8.65038C5.25048 11.2579 1.06738 9.87947 0.163817 6.29423ZM3.83228 5.05804C3.439 3.49786 3.77205 1.80619 4.79095 0.527497C2.0008 0.470545 -0.0860696 3.27032 0.641677 6.15852C1.41082 9.21049 4.82375 10.4592 7.19819 8.60568C5.5688 8.15893 4.27247 6.80516 3.83228 5.05804Z" fill="#292929"/>
<path d="M0.163817 6.29423L-0.805871 6.53857L-0.805862 6.53861L0.163817 6.29423ZM5.35954 0.0492643L5.21309 1.03848L5.21319 1.0385L5.35954 0.0492643ZM5.49217 0.503518L4.79078 -0.209259L4.79077 -0.20925L5.49217 0.503518ZM4.31001 4.92234L3.34032 5.16665L3.34033 5.16671L4.31001 4.92234ZM7.78767 8.19517L7.64123 9.18439L7.64131 9.1844L7.78767 8.19517ZM7.91927 8.65038L7.22065 7.93489L7.22042 7.93511L7.91927 8.65038ZM3.83228 5.05804L4.80198 4.81373L4.80195 4.81361L3.83228 5.05804ZM4.79095 0.527497L5.57303 1.15068L6.83336 -0.431021L4.81136 -0.472294L4.79095 0.527497ZM0.641677 6.15852L-0.328014 6.40286L-0.328004 6.40289L0.641677 6.15852ZM7.19819 8.60568L7.81352 9.39395L9.38391 8.16808L7.46262 7.64128L7.19819 8.60568ZM1.1335 6.04988C0.410682 3.18137 2.68976 0.664929 5.21309 1.03848L5.50598 -0.939955C1.38438 -1.55012 -1.82969 2.47556 -0.805871 6.53857L1.1335 6.04988ZM5.21319 1.0385C4.86778 0.987398 4.66117 0.72793 4.59802 0.501004C4.53812 0.285754 4.5756 0.00247855 4.79078 -0.209259L6.19356 1.21629C6.55841 0.857272 6.63549 0.362538 6.52481 -0.0351828C6.41088 -0.44458 6.06312 -0.857532 5.50588 -0.939969L5.21319 1.0385ZM4.79077 -0.20925C3.38761 1.17153 2.86387 3.27562 3.34032 5.16665L5.27971 4.67802C4.96523 3.42988 5.32852 2.06753 6.19357 1.21629L4.79077 -0.20925ZM3.34033 5.16671C3.8709 7.272 5.55455 8.8755 7.64123 9.18439L7.9341 7.20595C6.70357 7.02379 5.62719 6.05683 5.27969 4.67796L3.34033 5.16671ZM7.64131 9.1844C7.29563 9.13326 7.08835 8.87299 7.02553 8.64449C6.96608 8.42823 7.00517 8.14529 7.22065 7.93489L8.6179 9.36586C8.98408 9.00832 9.06373 8.5135 8.95398 8.1143C8.84086 7.70285 8.49243 7.28855 7.93403 7.20594L7.64131 9.1844ZM7.22042 7.93511C5.15663 9.95153 1.86709 8.96068 1.1335 6.04984L-0.805862 6.53861C0.267669 10.7983 5.34434 12.5643 8.61812 9.36564L7.22042 7.93511ZM4.80195 4.81361C4.48193 3.54406 4.7562 2.17577 5.57303 1.15068L4.00887 -0.0956828C2.7879 1.43661 2.39607 3.45165 2.86261 5.30247L4.80195 4.81361ZM4.81136 -0.472294C1.28501 -0.544274 -1.19775 2.95115 -0.328014 6.40286L1.61137 5.91419C1.02561 3.5895 2.7166 1.48536 4.77054 1.52729L4.81136 -0.472294ZM-0.328004 6.40289C0.603022 10.0972 4.82272 11.7286 7.81352 9.39395L6.58286 7.81742C4.82479 9.1898 2.21861 8.32374 1.61136 5.91415L-0.328004 6.40289ZM7.46262 7.64128C6.20241 7.29574 5.15965 6.23336 4.80198 4.81373L2.86258 5.30235C3.38528 7.37696 4.93519 9.02211 6.93376 9.57009L7.46262 7.64128Z" fill="#292929" mask="url(#path-1-inside-1)"/>
</svg>
