<svg width="10" height="10" viewBox="0 0 10 10" fill="none" xmlns="http://www.w3.org/2000/svg">
<path d="M5 2.85714C4.57618 2.85714 4.16188 2.98282 3.80949 3.21828C3.4571 3.45374 3.18245 3.78841 3.02026 4.17996C2.85807 4.57152 2.81563 5.00238 2.89832 5.41805C2.981 5.83372 3.18509 6.21555 3.48477 6.51523C3.78446 6.81491 4.16628 7.019 4.58195 7.10168C4.99762 7.18437 5.42848 7.14193 5.82004 6.97974C6.21159 6.81755 6.54626 6.5429 6.78172 6.19051C7.01718 5.83812 7.14286 5.42382 7.14286 5C7.14286 4.43168 6.91709 3.88664 6.51523 3.48477C6.11337 3.08291 5.56832 2.85714 5 2.85714ZM5 6.42857C4.71746 6.42857 4.44126 6.34479 4.20633 6.18781C3.9714 6.03084 3.7883 5.80773 3.68017 5.54669C3.57205 5.28565 3.54376 4.99842 3.59888 4.7213C3.654 4.44418 3.79006 4.18964 3.98985 3.98985C4.18964 3.79006 4.44418 3.654 4.7213 3.59888C4.99842 3.54376 5.28565 3.57205 5.54669 3.68017C5.80773 3.7883 6.03084 3.9714 6.18781 4.20633C6.34479 4.44126 6.42857 4.71746 6.42857 5C6.42857 5.37888 6.27806 5.74224 6.01015 6.01015C5.74224 6.27806 5.37888 6.42857 5 6.42857ZM4.64286 1.78571V0.357143C4.64286 0.262423 4.68048 0.171582 4.74746 0.104605C4.81444 0.0376274 4.90528 0 5 0C5.09472 0 5.18556 0.0376274 5.25254 0.104605C5.31952 0.171582 5.35714 0.262423 5.35714 0.357143V1.78571C5.35714 1.88043 5.31952 1.97128 5.25254 2.03825C5.18556 2.10523 5.09472 2.14286 5 2.14286C4.90528 2.14286 4.81444 2.10523 4.74746 2.03825C4.68048 1.97128 4.64286 1.88043 4.64286 1.78571ZM5.35714 8.21429V9.64286C5.35714 9.73758 5.31952 9.82842 5.25254 9.8954C5.18556 9.96237 5.09472 10 5 10C4.90528 10 4.81444 9.96237 4.74746 9.8954C4.68048 9.82842 4.64286 9.73758 4.64286 9.64286V8.21429C4.64286 8.11957 4.68048 8.02872 4.74746 7.96175C4.81444 7.89477 4.90528 7.85714 5 7.85714C5.09472 7.85714 5.18556 7.89477 5.25254 7.96175C5.31952 8.02872 5.35714 8.11957 5.35714 8.21429ZM10 5C10 5.09472 9.96237 5.18556 9.8954 5.25254C9.82842 5.31952 9.73758 5.35714 9.64286 5.35714H8.21429C8.11957 5.35714 8.02872 5.31952 7.96175 5.25254C7.89477 5.18556 7.85714 5.09472 7.85714 5C7.85714 4.90528 7.89477 4.81444 7.96175 4.74746C8.02872 4.68048 8.11957 4.64286 8.21429 4.64286H9.64286C9.73758 4.64286 9.82842 4.68048 9.8954 4.74746C9.96237 4.81444 10 4.90528 10 5ZM1.78571 5.35714H0.357143C0.262423 5.35714 0.171582 5.31952 0.104605 5.25254C0.0376274 5.18556 0 5.09472 0 5C0 4.90528 0.0376274 4.81444 0.104605 4.74746C0.171582 4.68048 0.262423 4.64286 0.357143 4.64286H1.78571C1.88043 4.64286 1.97128 4.68048 2.03825 4.74746C2.10523 4.81444 2.14286 4.90528 2.14286 5C2.14286 5.09472 2.10523 5.18556 2.03825 5.25254C1.97128 5.31952 1.88043 5.35714 1.78571 5.35714ZM6.88929 3.11071C6.82277 3.0438 6.78543 2.95328 6.78543 2.85893C6.78543 2.76458 6.82277 2.67406 6.88929 2.60714L8.31786 1.17857C8.38618 1.12006 8.47406 1.08949 8.56395 1.09296C8.65383 1.09643 8.7391 1.13369 8.8027 1.1973C8.86631 1.2609 8.90357 1.34617 8.90704 1.43605C8.91051 1.52594 8.87994 1.61382 8.82143 1.68214L7.39286 3.11071C7.32594 3.17723 7.23542 3.21457 7.14107 3.21457C7.04672 3.21457 6.9562 3.17723 6.88929 3.11071ZM1.175 1.68214C1.10775 1.61489 1.06997 1.52368 1.06997 1.42857C1.06997 1.33346 1.10775 1.24225 1.175 1.175C1.24225 1.10775 1.33346 1.06997 1.42857 1.06997C1.52368 1.06997 1.61489 1.10775 1.68214 1.175L3.11071 2.60357C3.1481 2.63559 3.17847 2.67499 3.1999 2.7193C3.22134 2.76361 3.23339 2.81187 3.23529 2.86105C3.23719 2.91024 3.2289 2.95929 3.21094 3.00512C3.19299 3.05095 3.16575 3.09257 3.13095 3.12738C3.09614 3.16218 3.05452 3.18942 3.00869 3.20737C2.96286 3.22533 2.91381 3.23361 2.86462 3.23171C2.81544 3.22981 2.76718 3.21777 2.72287 3.19633C2.67856 3.17489 2.63916 3.14453 2.60714 3.10714L1.175 1.68214ZM3.10714 6.89286C3.17366 6.95977 3.211 7.05029 3.211 7.14464C3.211 7.23899 3.17366 7.32951 3.10714 7.39643L1.67857 8.825C1.61025 8.88351 1.52237 8.91408 1.43248 8.91061C1.3426 8.90714 1.25733 8.86988 1.19373 8.80627C1.13012 8.74267 1.09286 8.6574 1.08939 8.56752C1.08592 8.47764 1.11649 8.38975 1.175 8.32143L2.60357 6.89286C2.63654 6.85915 2.67585 6.8323 2.71924 6.81386C2.76264 6.79542 2.80925 6.78576 2.8564 6.78543C2.90355 6.78509 2.95029 6.7941 2.99394 6.81193C3.03759 6.82975 3.07728 6.85604 3.11071 6.88929L3.10714 6.89286ZM8.82143 8.32143C8.85882 8.35345 8.88918 8.39284 8.91062 8.43715C8.93205 8.48146 8.9441 8.52972 8.946 8.57891C8.9479 8.62809 8.93961 8.67714 8.92166 8.72297C8.9037 8.7688 8.87647 8.81043 8.84166 8.84523C8.80686 8.88004 8.76523 8.90727 8.7194 8.92523C8.67357 8.94318 8.62452 8.95147 8.57534 8.94957C8.52615 8.94767 8.47789 8.93563 8.43358 8.91419C8.38927 8.89275 8.34987 8.86239 8.31786 8.825L6.88929 7.39643C6.83078 7.32811 6.8002 7.24022 6.80367 7.15034C6.80715 7.06045 6.84441 6.97519 6.90801 6.91158C6.97162 6.84798 7.05688 6.81072 7.14677 6.80725C7.23665 6.80377 7.32454 6.83435 7.39286 6.89286L8.82143 8.32143Z" fill="black"/>
</svg>
