<svg width="15" height="20" viewBox="0 0 15 20" fill="none" xmlns="http://www.w3.org/2000/svg">
    <path
        d="M8.09917 7.88667C6.84996 7.88667 5.83441 6.90775 5.83441 5.70543V4.31947C5.83441 4.15385 5.69489 4.01947 5.52292 4.01947C5.35095 4.01947 5.21143 4.15385 5.21143 4.31947V5.70465C5.21143 7.23828 6.50688 8.48589 8.09917 8.48589C8.27114 8.48589 8.41066 8.35152 8.41066 8.18589C8.41066 8.02104 8.27114 7.88667 8.09917 7.88667Z"
        fill="#F6F6F6"
        stroke="#F6F6F6"
        stroke-width="0.2"
    />
    <path
        d="M13.6885 1H11.332H11.3312H3.68509C3.68184 1 3.67941 1.00078 3.67698 1.00078C3.67373 1.00078 3.6713 1 3.66886 1H1.31149C1.13952 1 1 1.13438 1 1.3V4.84686C1 6.22343 2.13078 7.34769 3.54468 7.41009C4.02166 8.96635 5.46069 10.1257 7.19662 10.2515V12.65C6.16236 12.7547 5.33821 13.3703 5.16787 14.1554H3.86674C3.69478 14.1554 3.55525 14.2898 3.55525 14.4555V16.2774H2.3904C2.21843 16.2774 2.0789 16.4117 2.0789 16.5774V18.7C2.0789 18.8656 2.21843 19 2.3904 19H12.6258C12.7978 19 12.9373 18.8656 12.9373 18.7V16.5782C12.9373 16.4125 12.7978 16.2782 12.6258 16.2782H11.461V14.4563C11.461 14.2906 11.3214 14.1562 11.1495 14.1562H9.84835C9.678 13.3711 8.85384 12.7554 7.8196 12.6508V10.2515C9.55633 10.1257 10.9962 8.96635 11.4732 7.40929C12.8782 7.33742 13.9992 6.21709 13.9992 4.84686L14 1.3C14 1.13438 13.8605 1 13.6885 1H13.6885ZM3.35738 6.79388C2.37666 6.64935 1.62388 5.83137 1.62388 4.84698L1.62307 1.60013H3.35657L3.35738 6.79388ZM12.3144 18.4003H2.702V16.8783H12.3144V18.4003ZM10.8381 16.2784H4.17756V14.7565H10.8373L10.8381 16.2784ZM9.20438 14.1558H5.81119C6.00344 13.6261 6.69051 13.2323 7.50818 13.2323C8.32584 13.2331 9.0121 13.6269 9.20436 14.1558H9.20438ZM7.5082 9.66753C5.57273 9.66753 3.99747 8.15032 3.99747 6.28628V1.60021H11.0206V6.29868C11.0125 8.1573 9.4404 9.66753 7.5082 9.66753ZM13.3771 4.84706C13.3771 5.83145 12.6235 6.64942 11.6436 6.79396V6.29942C11.6436 6.29473 11.6444 6.29004 11.6444 6.28613L11.6436 1.60007H13.3763V4.84691L13.3771 4.84706Z"
        fill="#F6F6F6"
        stroke="#F6F6F6"
        stroke-width="0.2"
    />
</svg>
